Coordinates
version=1
nRows=19
nColumns=24
inDegrees=yes

Units are S.I. units (second, meters, Newtons, ...)
Angles are in degrees.

endheader
time	pelvis_tilt	pelvis_list	pelvis_rotation	pelvis_tx	pelvis_ty	pelvis_tz	hip_flexion_r	hip_adduction_r	hip_rotation_r	knee_angle_r	ankle_angle_r	subtalar_angle_r	mtp_angle_r	hip_flexion_l	hip_adduction_l	hip_rotation_l	knee_angle_l	ankle_angle_l	subtalar_angle_l	mtp_angle_l	lumbar_extension	lumbar_bending	lumbar_rotation
      3.35000000	     -1.74952262	      0.85646549	     14.76933740	     -0.62574891	      0.91748747	     -0.26717148	     23.61836393	     -5.78907793	    -14.62394254	     -3.22120391	      5.38636725	      1.00458827	      0.00000000	    -12.69756933	      1.19985338	     13.00499870	    -17.48835737	     18.91793796	     -0.69604723	      0.00000000	    -17.64110055	      0.90273090	    -19.34783640
      3.36000000	     -1.82459304	      0.38788958	     14.70791455	     -0.61023106	      0.91645741	     -0.26577788	     24.04312372	     -5.20954952	    -13.63068488	     -5.01891248	      4.10257151	     -0.18947221	      0.00000000	    -12.52838970	      0.51662741	     12.37244688	    -19.10221768	     17.72728450	     -0.41466176	      0.00000000	    -17.30941412	      1.42730549	    -19.15583042
      3.37000000	     -1.76548446	     -0.20762025	     14.55127878	     -0.59451090	      0.91596901	     -0.26416895	     24.29615297	     -4.35540091	    -12.33299511	     -6.83663343	      2.62459800	     -1.51386276	      0.00000000	    -12.31120256	     -0.29807953	     11.58135059	    -20.96074387	     16.13292069	     -0.20540295	      0.00000000	    -17.10534232	      2.11553299	    -18.82901150
      3.38000000	     -1.73354185	     -0.90215972	     14.27915104	     -0.57874146	      0.91580794	     -0.26238518	     24.64578348	     -3.34134721	    -11.23842543	     -8.81156855	      1.65645703	     -2.11466470	      0.00000000	    -11.83766524	     -1.13864389	     10.73068639	    -23.13253368	     14.04561570	     -0.35713332	      0.00000000	    -16.86317904	      2.89367681	    -18.43174387
      3.39000000	     -1.63237364	     -1.67352270	     13.90628484	     -0.56297313	      0.91609058	     -0.26046308	     24.94242268	     -2.17400691	    -10.31930134	    -10.83858072	      1.17702754	     -2.39443153	      0.00000000	    -11.19471538	     -2.01312092	      9.84264586	    -25.63121888	     11.50440097	     -0.79227036	      0.00000000	    -16.71533418	      3.76114674	    -17.95401433
      3.40000000	     -1.51478447	     -2.47409391	     13.45535948	     -0.54729372	      0.91667099	     -0.25847438	     25.21356707	     -0.94103158	     -9.61654053	    -12.87243872	      1.26519042	     -2.52179368	      0.00000000	    -10.31519711	     -2.84931107	      9.03259946	    -28.47971855	      8.55705947	     -1.51321394	      0.00000000	    -16.61416474	      4.64906789	    -17.41282840
      3.41000000	     -1.41072325	     -3.25667061	     12.95817784	     -0.53179217	      0.91742368	     -0.25649909	     25.43617200	      0.27889898	     -9.12970254	    -14.82401442	      1.86723837	     -2.55783661	      0.00000000	     -9.17115550	     -3.58447894	      8.40000606	    -31.66366767	      5.35797868	     -2.48911029	      0.00000000	    -16.53660387	      5.49659732	    -16.84656717
      3.42000000	     -1.34153937	     -4.00204447	     12.45642303	     -0.51655333	      0.91822875	     -0.25460133	     25.56775296	      1.44624978	     -8.82070584	    -16.56926536	      2.82592546	     -2.58961410	      0.00000000	     -7.73711938	     -4.20246439	      7.97718309	    -35.16474917	      2.24384548	     -3.47594131	      0.00000000	    -16.45824013	      6.28166921	    -16.27740365
      3.43000000	     -1.31413080	     -4.71777824	     11.99864059	     -0.50163736	      0.91900667	     -0.25280239	     25.56600964	      2.56189265	     -8.63830918	    -18.00219007	      3.94351033	     -2.68340664	      0.00000000	     -6.01958441	     -4.72857145	      7.77109834	    -38.91544277	     -0.40763287	     -4.24673480	      0.00000000	    -16.36337033	      7.00392216	    -15.74315903
      3.44000000	     -1.33468337	     -5.41612038	     11.60694932	     -0.48707861	      0.91972352	     -0.25111522	     25.40164226	      3.64195043	     -8.52441973	    -19.03604796	      5.06687283	     -2.85168052	      0.00000000	     -4.04666528	     -5.18055074	      7.77233086	    -42.81675858	     -2.28178760	     -4.64256463	      0.00000000	    -16.23302034	      7.67849068	    -15.23030281
      3.45000000	     -1.38011133	     -6.10691088	     11.29489331	     -0.47286631	      0.92043699	     -0.24953374	     25.03784552	      4.70863239	     -8.43690703	    -19.63345174	      6.09041191	     -3.06109686	      0.00000000	     -1.90048420	     -5.56968681	      7.97867671	    -46.72752452	     -3.22156481	     -4.63734475	      0.00000000	    -16.08510153	      8.31373989	    -14.71679442
      3.46000000	     -1.47360434	     -6.74349254	     11.04776949	     -0.45899301	      0.92116029	     -0.24803224	     24.53051957	      5.71376922	     -8.33396255	    -19.87271737	      7.05181258	     -3.27636949	      0.00000000	      0.38897972	     -5.85559474	      8.29930771	    -50.51968512	     -3.25488281	     -4.18102953	      0.00000000	    -15.89678257	      8.85447944	    -14.27468455
      3.47000000	     -1.54726575	     -7.33812124	     10.84697428	     -0.44539324	      0.92204957	     -0.24660197	     23.82467231	      6.69090647	     -8.19940418	    -19.77551780	      7.87321145	     -3.47496316	      0.00000000	      2.68590186	     -6.05644559	      8.70264337	    -54.05690888	     -2.50233657	     -3.40224291	      0.00000000	    -15.74320401	      9.33076532	    -13.82269376
      3.48000000	     -1.59190995	     -7.83252046	     10.64405881	     -0.43200468	      0.92317752	     -0.24518034	     22.95036931	      7.59705518	     -7.95050086	    -19.45059874	      8.61813905	     -3.63985288	      0.00000000	      4.91628144	     -6.12391025	      9.09472406	    -57.22838287	     -1.22894289	     -2.41081355	      0.00000000	    -15.65169324	      9.66462697	    -13.36533763
      3.49000000	     -1.60965303	     -8.21264413	     10.40002571	     -0.41876979	      0.92456961	     -0.24375199	     21.94854574	      8.41365531	     -7.58101085	    -18.98664239	      9.27804927	     -3.72000682	      0.00000000	      7.04471813	     -6.05803758	      9.40112467	    -59.97008903	      0.27249248	     -1.37663491	      0.00000000	    -15.62057133	      9.84642044	    -12.87433210
      3.50000000	     -1.60573237	     -8.43517469	     10.08343803	     -0.40568445	      0.92620223	     -0.24230053	     20.87677332	      9.08664816	     -7.08368168	    -18.50781030	      9.93411306	     -3.76858809	      0.00000000	      9.05001576	     -5.83116635	      9.55908257	    -62.25506929	      1.81748476	     -0.37683963	      0.00000000	    -15.66409563	      9.82727700	    -12.34282428
      3.51000000	     -1.59837877	     -8.52197160	      9.68693264	     -0.39269274	      0.92801493	     -0.24083793	     19.76927896	      9.62261384	     -6.47875829	    -18.03890624	     10.55864277	     -3.75166184	      0.00000000	     10.94773013	     -5.48775295	      9.54336779	    -64.08563549	      3.25351139	      0.48725578	      0.00000000	    -15.74558440	      9.64002297	    -11.77081033
      3.52000000	     -1.59940031	     -8.50004088	      9.22402693	     -0.37977624	      0.92992307	     -0.23939685	     18.65707377	     10.03369316	     -5.78909571	    -17.60329021	     11.15161130	     -3.67487532	      0.00000000	     12.76201771	     -5.07224253	      9.36050153	    -65.48945918	      4.54682041	      1.16836754	      0.00000000	    -15.84048463	      9.32871097	    -11.19816350
      3.53000000	     -1.60989206	     -8.38250345	      8.67055581	     -0.36690955	      0.93186889	     -0.23795987	     17.55234747	     10.33078550	     -5.02933628	    -17.21590671	     11.77899047	     -3.53276500	      0.00000000	     14.48683487	     -4.61947790	      8.98529684	    -66.48168825	      5.60011325	      1.54881069	      0.00000000	    -15.94566105	      8.90553120	    -10.52104234
